<?xml version="1.0" encoding="utf-8"?>
<!-- Generator: Adobe Illustrator 19.2.1, SVG Export Plug-In . SVG Version: 6.00 Build 0)  -->
<svg version="1.1" id="layer" xmlns="http://www.w3.org/2000/svg" xmlns:xlink="http://www.w3.org/1999/xlink" x="0px" y="0px"
	 viewBox="0 0 652 652" style="enable-background:new 0 0 652 652;" xml:space="preserve">
<style type="text/css">
	.st0{fill:#231815;}
</style>
<g>
	<polygon class="st0" points="176.7,375.6 176.7,269.7 176.7,268.2 194.8,268.2 194.8,357.7 282.8,357.7 282.8,375.6 	"/>
	<path class="st0" d="M372.2,357.7c42.3-0.1,56.6-17.7,56.7-35.6c0-0.1,0-0.2,0-0.2c-0.2-17.1-13.3-35.7-52.9-35.8h-53v71.6H372.2z
		 M375.9,268.2c54.1-0.1,71.2,30.8,71.3,53.8c0,0,0,0.1,0,0.3c0,12.2-4.6,25.6-16.5,35.9c-11.9,10.3-30.9,17.4-59.4,17.4h0h-66.4
		V268.2H375.9z"/>
	<path class="st0" d="M543.8,360c39.8-0.1,58.3-19.1,58.4-38.1c0-9.7-4.7-19.2-14.4-26.3c-9.7-7.1-24.3-11.8-44-11.8
		c-39.8,0.1-58.3,19.1-58.4,38.1C485.4,340.9,504,360,543.8,360 M543.8,265.8c25.7,0,44.9,6.9,57.6,17.5c12.7,10.5,19,24.6,19,38.7
		c0,14-6.2,28.2-19,38.7S569.5,378,543.8,378h0c-25.7,0-44.9-6.9-57.6-17.5c-12.7-10.5-19-24.6-19-38.7c0-14,6.3-28.2,19-38.7
		C498.9,272.7,518,265.8,543.8,265.8"/>
	<path class="st0" d="M111.9,331.8l-21.5-33.7l-21.9,33.7H111.9z M23.1,375.5l-2.7,0L90.5,266l70,109.5h-20.3l-17.3-25.9H57.7
		l-17,26L23.1,375.5z"/>
</g>
</svg>
